<svg xmlns="http://www.w3.org/2000/svg" width="1100" height="720" viewBox="0 0 1100 720" role="img" aria-labelledby="title desc">
  <title id="title">How selected leader trends unfolded</title>
  <desc id="desc">A transition matrix for ten displayed signifiers. Each row reports the percentage-point prevalence change across three adjacent transitions between four equal-duration calendar periods, whether each change matches the selected linear slope&#x27;s direction, and the largest transition&#x27;s share of total absolute adjacent movement.</desc>
  <rect width="1100" height="720" fill="#ffffff"/>
  <style>
    text { font-family: system-ui, -apple-system, sans-serif; fill: #243128; }
    .title { font-size: 25px; font-weight: 700; }
    .subtitle { font-size: 15px; fill: #4e5d51; }
    .axis { stroke: #66736a; stroke-width: 1; }
    .grid { stroke: #dde3d8; stroke-width: 1; }
    .tick { font-size: 13px; fill: #4e5d51; }
  </style>
  <text class="title" x="245" y="38">How selected leader trends unfolded</text>
  <text class="subtitle" x="245" y="66">Raw prevalence changes across four equal-duration calendar periods</text>
  <rect x="245" y="82" width="14" height="14" rx="2" fill="#dde3d8" stroke="#4B6F44" stroke-width="2"/>
  <text class="tick" x="267" y="94">Matches selected linear direction (✓)</text>
  <rect x="510" y="82" width="14" height="14" rx="2" fill="#f3e4ce" stroke="#9B6A21" stroke-width="2"/>
  <text class="tick" x="532" y="94">Opposes it (↺)</text>
  <text class="subtitle" text-anchor="middle" x="347.5" y="126">P1 → P2</text>
  <text class="tick" text-anchor="middle" x="347.5" y="701">2025-10-25 → 2025-10-26</text>
  <text class="subtitle" text-anchor="middle" x="552.5" y="126">P2 → P3</text>
  <text class="tick" text-anchor="middle" x="552.5" y="701">2026-02-13 → 2026-02-14</text>
  <text class="subtitle" text-anchor="middle" x="757.5" y="126">P3 → P4</text>
  <text class="tick" text-anchor="middle" x="757.5" y="701">2026-06-04 → 2026-06-05</text>
  <text class="subtitle" x="884" y="126">Directional pattern</text>
  <text class="tick" text-anchor="end" x="231" y="175.7">beautiful</text>
  <rect x="259.0" y="154.7" width="177.0" height="32" rx="4" fill="#f3e4ce" stroke="#9B6A21" stroke-width="2"/>
  <text class="tick" text-anchor="middle" x="347.5" y="175.7">-6.1 ↺</text>
  <rect x="464.0" y="154.7" width="177.0" height="32" rx="4" fill="#dde3d8" stroke="#4B6F44" stroke-width="2"/>
  <text class="tick" text-anchor="middle" x="552.5" y="175.7">+17.5 ✓</text>
  <rect x="669.0" y="154.7" width="177.0" height="32" rx="4" fill="#dde3d8" stroke="#4B6F44" stroke-width="2"/>
  <text class="tick" text-anchor="middle" x="757.5" y="175.7">+9.5 ✓</text>
  <text class="tick" x="884" y="175.7">2/3 aligned · max 53%</text>
  <text class="tick" text-anchor="end" x="231" y="226.9">pretty</text>
  <rect x="259.0" y="205.9" width="177.0" height="32" rx="4" fill="#f3e4ce" stroke="#9B6A21" stroke-width="2"/>
  <text class="tick" text-anchor="middle" x="347.5" y="226.9">-10.6 ↺</text>
  <rect x="464.0" y="205.9" width="177.0" height="32" rx="4" fill="#dde3d8" stroke="#4B6F44" stroke-width="2"/>
  <text class="tick" text-anchor="middle" x="552.5" y="226.9">+16.2 ✓</text>
  <rect x="669.0" y="205.9" width="177.0" height="32" rx="4" fill="#dde3d8" stroke="#4B6F44" stroke-width="2"/>
  <text class="tick" text-anchor="middle" x="757.5" y="226.9">+4.7 ✓</text>
  <text class="tick" x="884" y="226.9">2/3 aligned · max 51%</text>
  <text class="tick" text-anchor="end" x="231" y="278.2">amateur artist</text>
  <rect x="259.0" y="257.2" width="177.0" height="32" rx="4" fill="#dde3d8" stroke="#4B6F44" stroke-width="2"/>
  <text class="tick" text-anchor="middle" x="347.5" y="278.2">+0.4 ✓</text>
  <rect x="464.0" y="257.2" width="177.0" height="32" rx="4" fill="#dde3d8" stroke="#4B6F44" stroke-width="2"/>
  <text class="tick" text-anchor="middle" x="552.5" y="278.2">+5.0 ✓</text>
  <rect x="669.0" y="257.2" width="177.0" height="32" rx="4" fill="#dde3d8" stroke="#4B6F44" stroke-width="2"/>
  <text class="tick" text-anchor="middle" x="757.5" y="278.2">+11.5 ✓</text>
  <text class="tick" x="884" y="278.2">3/3 aligned · max 68%</text>
  <text class="tick" text-anchor="end" x="231" y="329.5">COVID survivor</text>
  <rect x="259.0" y="308.5" width="177.0" height="32" rx="4" fill="#dde3d8" stroke="#4B6F44" stroke-width="2"/>
  <text class="tick" text-anchor="middle" x="347.5" y="329.5">+4.8 ✓</text>
  <rect x="464.0" y="308.5" width="177.0" height="32" rx="4" fill="#dde3d8" stroke="#4B6F44" stroke-width="2"/>
  <text class="tick" text-anchor="middle" x="552.5" y="329.5">+2.0 ✓</text>
  <rect x="669.0" y="308.5" width="177.0" height="32" rx="4" fill="#dde3d8" stroke="#4B6F44" stroke-width="2"/>
  <text class="tick" text-anchor="middle" x="757.5" y="329.5">+9.1 ✓</text>
  <text class="tick" x="884" y="329.5">3/3 aligned · max 57%</text>
  <text class="tick" text-anchor="end" x="231" y="380.9">romance fan</text>
  <rect x="259.0" y="359.9" width="177.0" height="32" rx="4" fill="#dde3d8" stroke="#4B6F44" stroke-width="2"/>
  <text class="tick" text-anchor="middle" x="347.5" y="380.9">+1.9 ✓</text>
  <rect x="464.0" y="359.9" width="177.0" height="32" rx="4" fill="#dde3d8" stroke="#4B6F44" stroke-width="2"/>
  <text class="tick" text-anchor="middle" x="552.5" y="380.9">+8.4 ✓</text>
  <rect x="669.0" y="359.9" width="177.0" height="32" rx="4" fill="#dde3d8" stroke="#4B6F44" stroke-width="2"/>
  <text class="tick" text-anchor="middle" x="757.5" y="380.9">+3.2 ✓</text>
  <text class="tick" x="884" y="380.9">3/3 aligned · max 62%</text>
  <text class="tick" text-anchor="end" x="231" y="432.1">nba fan</text>
  <rect x="259.0" y="411.1" width="177.0" height="32" rx="4" fill="#dde3d8" stroke="#4B6F44" stroke-width="2"/>
  <text class="tick" text-anchor="middle" x="347.5" y="432.1">-1.9 ✓</text>
  <rect x="464.0" y="411.1" width="177.0" height="32" rx="4" fill="#dde3d8" stroke="#4B6F44" stroke-width="2"/>
  <text class="tick" text-anchor="middle" x="552.5" y="432.1">-9.6 ✓</text>
  <rect x="669.0" y="411.1" width="177.0" height="32" rx="4" fill="#f3e4ce" stroke="#9B6A21" stroke-width="2"/>
  <text class="tick" text-anchor="middle" x="757.5" y="432.1">+0.5 ↺</text>
  <text class="tick" x="884" y="432.1">2/3 aligned · max 81%</text>
  <text class="tick" text-anchor="end" x="231" y="483.4">star wars fan</text>
  <rect x="259.0" y="462.4" width="177.0" height="32" rx="4" fill="#f3e4ce" stroke="#9B6A21" stroke-width="2"/>
  <text class="tick" text-anchor="middle" x="347.5" y="483.4">+0.4 ↺</text>
  <rect x="464.0" y="462.4" width="177.0" height="32" rx="4" fill="#dde3d8" stroke="#4B6F44" stroke-width="2"/>
  <text class="tick" text-anchor="middle" x="552.5" y="483.4">-11.7 ✓</text>
  <rect x="669.0" y="462.4" width="177.0" height="32" rx="4" fill="#f3e4ce" stroke="#9B6A21" stroke-width="2"/>
  <text class="tick" text-anchor="middle" x="757.5" y="483.4">+0.4 ↺</text>
  <text class="tick" x="884" y="483.4">1/3 aligned · max 93%</text>
  <text class="tick" text-anchor="end" x="231" y="534.8">social conservative</text>
  <rect x="259.0" y="513.8" width="177.0" height="32" rx="4" fill="#dde3d8" stroke="#4B6F44" stroke-width="2"/>
  <text class="tick" text-anchor="middle" x="347.5" y="534.8">-4.6 ✓</text>
  <rect x="464.0" y="513.8" width="177.0" height="32" rx="4" fill="#f3e4ce" stroke="#9B6A21" stroke-width="2"/>
  <text class="tick" text-anchor="middle" x="552.5" y="534.8">+4.0 ↺</text>
  <rect x="669.0" y="513.8" width="177.0" height="32" rx="4" fill="#dde3d8" stroke="#4B6F44" stroke-width="2"/>
  <text class="tick" text-anchor="middle" x="757.5" y="534.8">-12.4 ✓</text>
  <text class="tick" x="884" y="534.8">2/3 aligned · max 59%</text>
  <text class="tick" text-anchor="end" x="231" y="586.0">2a supporter</text>
  <rect x="259.0" y="565.0" width="177.0" height="32" rx="4" fill="#dde3d8" stroke="#4B6F44" stroke-width="2"/>
  <text class="tick" text-anchor="middle" x="347.5" y="586.0">-4.9 ✓</text>
  <rect x="464.0" y="565.0" width="177.0" height="32" rx="4" fill="#dde3d8" stroke="#4B6F44" stroke-width="2"/>
  <text class="tick" text-anchor="middle" x="552.5" y="586.0">-11.9 ✓</text>
  <rect x="669.0" y="565.0" width="177.0" height="32" rx="4" fill="#f3e4ce" stroke="#9B6A21" stroke-width="2"/>
  <text class="tick" text-anchor="middle" x="757.5" y="586.0">+5.9 ↺</text>
  <text class="tick" x="884" y="586.0">2/3 aligned · max 52%</text>
  <text class="tick" text-anchor="end" x="231" y="637.3">Reddit user</text>
  <rect x="259.0" y="616.3" width="177.0" height="32" rx="4" fill="#dde3d8" stroke="#4B6F44" stroke-width="2"/>
  <text class="tick" text-anchor="middle" x="347.5" y="637.3">-6.5 ✓</text>
  <rect x="464.0" y="616.3" width="177.0" height="32" rx="4" fill="#dde3d8" stroke="#4B6F44" stroke-width="2"/>
  <text class="tick" text-anchor="middle" x="552.5" y="637.3">-1.3 ✓</text>
  <rect x="669.0" y="616.3" width="177.0" height="32" rx="4" fill="#dde3d8" stroke="#4B6F44" stroke-width="2"/>
  <text class="tick" text-anchor="middle" x="757.5" y="637.3">-3.5 ✓</text>
  <text class="tick" x="884" y="637.3">3/3 aligned · max 57%</text>
  <text class="tick" text-anchor="end" x="1074" y="701">Cells show percentage-point change; max is largest share of total absolute path</text>
</svg>
