<svg xmlns="http://www.w3.org/2000/svg" width="960" height="540" viewBox="0 0 960 540" role="img" aria-labelledby="title desc">
  <title id="title">Estimated annual prevalence change across signifiers</title>
  <desc id="desc">Histogram of unweighted linear probability slopes for 704 signifiers. Most estimates cluster near zero.</desc>
  <rect width="960" height="540" fill="#ffffff"/>
  <style>
    text { font-family: system-ui, -apple-system, sans-serif; fill: #243128; }
    .title { font-size: 25px; font-weight: 700; }
    .subtitle { font-size: 15px; fill: #4e5d51; }
    .axis { stroke: #66736a; stroke-width: 1; }
    .grid { stroke: #dde3d8; stroke-width: 1; }
    .tick { font-size: 13px; fill: #4e5d51; }
  </style>
  <text class="title" x="92" y="38">Estimated annual prevalence change across signifiers</text>
  <text class="subtitle" x="92" y="66">704 eligible signifiers · unweighted linear trends through 2026-09-20 · 2-point bins</text>
  <line class="grid" x1="92" y1="466.0" x2="925" y2="466.0"/>
  <text class="tick" text-anchor="end" x="80" y="471.0">0</text>
  <line class="grid" x1="92" y1="384.4" x2="925" y2="384.4"/>
  <text class="tick" text-anchor="end" x="80" y="389.4">35</text>
  <line class="grid" x1="92" y1="302.8" x2="925" y2="302.8"/>
  <text class="tick" text-anchor="end" x="80" y="307.8">70</text>
  <line class="grid" x1="92" y1="221.2" x2="925" y2="221.2"/>
  <text class="tick" text-anchor="end" x="80" y="226.2">105</text>
  <line class="grid" x1="92" y1="139.6" x2="925" y2="139.6"/>
  <text class="tick" text-anchor="end" x="80" y="144.6">140</text>
  <rect x="93.00" y="459.01" width="39.65" height="6.99" fill="#4B6F44"/>
  <rect x="134.65" y="461.34" width="39.65" height="4.66" fill="#4B6F44"/>
  <rect x="176.30" y="459.01" width="39.65" height="6.99" fill="#4B6F44"/>
  <rect x="217.95" y="433.36" width="39.65" height="32.64" fill="#4B6F44"/>
  <rect x="259.60" y="421.71" width="39.65" height="44.29" fill="#4B6F44"/>
  <rect x="301.25" y="370.42" width="39.65" height="95.58" fill="#4B6F44"/>
  <rect x="342.90" y="279.50" width="39.65" height="186.50" fill="#4B6F44"/>
  <rect x="384.55" y="132.64" width="39.65" height="333.36" fill="#4B6F44"/>
  <rect x="426.20" y="100.00" width="39.65" height="366.00" fill="#4B6F44"/>
  <rect x="467.85" y="235.21" width="39.65" height="230.79" fill="#4B6F44"/>
  <rect x="509.50" y="333.12" width="39.65" height="132.88" fill="#4B6F44"/>
  <rect x="551.15" y="391.40" width="39.65" height="74.60" fill="#4B6F44"/>
  <rect x="592.80" y="431.03" width="39.65" height="34.97" fill="#4B6F44"/>
  <rect x="634.45" y="417.04" width="39.65" height="48.96" fill="#4B6F44"/>
  <rect x="676.10" y="445.02" width="39.65" height="20.98" fill="#4B6F44"/>
  <rect x="717.75" y="459.01" width="39.65" height="6.99" fill="#4B6F44"/>
  <rect x="759.40" y="456.68" width="39.65" height="9.32" fill="#4B6F44"/>
  <rect x="801.05" y="463.67" width="39.65" height="2.33" fill="#4B6F44"/>
  <rect x="842.70" y="466.00" width="39.65" height="0.00" fill="#4B6F44"/>
  <rect x="884.35" y="463.67" width="39.65" height="2.33" fill="#4B6F44"/>
  <line class="axis" x1="216.9" y1="466" x2="216.9" y2="472"/>
  <text class="tick" text-anchor="middle" x="216.9" y="493">-10</text>
  <line class="axis" x1="425.2" y1="466" x2="425.2" y2="472"/>
  <text class="tick" text-anchor="middle" x="425.2" y="493">+0</text>
  <line class="axis" x1="633.5" y1="466" x2="633.5" y2="472"/>
  <text class="tick" text-anchor="middle" x="633.5" y="493">+10</text>
  <line class="axis" x1="841.7" y1="466" x2="841.7" y2="472"/>
  <text class="tick" text-anchor="middle" x="841.7" y="493">+20</text>
  <line x1="425.2" y1="100" x2="425.2" y2="466" stroke="#243128" stroke-width="2"/>
  <line class="axis" x1="92" y1="100" x2="92" y2="466"/>
  <line class="axis" x1="92" y1="466" x2="925" y2="466"/>
  <text class="tick" x="508.5" y="522" text-anchor="middle">Estimated change (percentage points per year)</text>
  <text class="tick" transform="translate(24 283.0) rotate(-90)" text-anchor="middle">Signifiers</text>
</svg>
